<?xml version="1.0" encoding="UTF-8"?><svg id="V_Icon_Red" xmlns="http://www.w3.org/2000/svg" viewBox="0 0 250 250"><defs><style>.cls-1{fill:#fff;}</style></defs><path class="cls-1" d="M0,45V205c0,24.85,20.15,45,45,45H205c24.85,0,45-20.15,45-45V45C250,20.15,229.85,0,205,0H45C20.15,0,0,20.15,0,45Zm229.82,31.65l-82.14,102.54c-.6,.74-1.43,1.21-2.35,1.37-.2,.05-.41,.08-.62,.08h-39.36c-1.18,0-2.28-.53-3.02-1.45L20.18,76.65c-.94-1.17-1.12-2.74-.47-4.1,.65-1.35,1.99-2.2,3.49-2.2H60.44c1.18,0,2.28,.53,3.02,1.45l61.54,76.81,61.54-76.81c.74-.92,1.84-1.45,3.02-1.45h37.24c1.5,0,2.84,.84,3.49,2.19,.65,1.35,.47,2.92-.47,4.1Z"/></svg>